<svg width="512" height="512" viewBox="0 0 512 512" fill="none" xmlns="http://www.w3.org/2000/svg">
<path d="M457.738 280.286C457.655 279.487 455.614 260.459 448.048 239.045C437.723 209.816 422.615 190.98 403.137 183.018C397.644 173.778 387.478 161.987 369.682 156.426C366.272 155.362 362.638 157.236 361.533 160.634C361.444 160.904 360.732 163.157 360.019 166.897C358.004 166.027 355.577 165.127 352.719 164.316C341.043 161.001 327.588 160.525 312.703 162.893C304.71 159.994 269.946 148.107 222.386 142.26C174.617 136.386 132.982 151.073 98.6346 185.91C71.7054 213.225 73.6619 242.959 75.2344 266.853C75.5656 271.885 75.8779 276.637 75.8779 280.963C75.8779 303.433 56.3151 332.693 56.1192 332.984C54.5609 335.288 54.6364 338.327 56.3049 340.553L71.9446 361.406C76.4498 367.414 83.6234 371 91.1329 371H103.281C106.884 371 109.805 368.079 109.805 364.475C109.805 360.872 106.884 357.951 103.281 357.951H97.1918C103.437 352.743 112.382 344.881 121.856 335.226C126.277 330.721 130.383 326.269 134.172 321.877C136.638 335.741 137.746 349.973 138.22 358.283C138.627 365.414 144.555 370.999 151.714 370.999H186.793C190.396 370.999 193.318 368.078 193.318 364.475C193.318 360.872 190.397 357.95 186.793 357.95H175.464C183.856 334.789 185.847 315.735 186.255 310.521C190.124 310.786 193.956 310.915 197.713 310.915C220.723 310.915 241.023 306.422 251.152 303.322C256.384 324.396 275.898 362.569 278.426 367.467C279.545 369.637 281.782 370.999 284.224 370.999H319.02C322.623 370.999 325.545 368.078 325.545 364.475C325.545 360.872 322.624 357.95 319.02 357.95H308.237C312.327 348.641 318.688 333.545 324.072 318.068C325.215 317.866 326.883 317.52 328.935 316.966C342.783 346.321 369.356 368.526 370.537 369.501C371.706 370.469 373.177 370.998 374.694 370.998H402.532C406.135 370.998 409.057 368.077 409.057 364.473C409.057 360.87 406.136 357.948 402.532 357.948H392.011C387.528 350.561 384.165 336.845 382.453 318.699C381.663 310.328 381.359 302.495 381.249 296.842C385.114 298.875 389.485 300.417 394.423 301.302C409.357 303.977 419.868 305.722 426.056 306.713C427.245 306.903 428.432 306.996 429.613 306.996C437.087 306.996 444.219 303.267 448.444 296.93L456.677 284.581C457.521 283.317 457.895 281.798 457.738 280.286ZM161.516 357.95H151.715C151.454 357.95 151.262 357.781 151.248 357.539C150.631 346.723 148.972 326.239 144.755 308.645C146.229 306.641 147.638 304.65 148.97 302.673C156.889 305.721 165.09 307.769 173.276 309.063C172.997 312.784 171.058 333.584 161.516 357.95ZM377.132 357.95C371.285 352.746 351.997 334.574 341.211 312.397C349.512 308.455 359.342 301.952 368.129 291.315C368.078 302.97 368.741 336.779 377.494 357.95H377.132ZM437.587 289.693C435.518 292.795 431.804 294.418 428.123 293.829C421.989 292.845 411.561 291.116 396.725 288.458C386.204 286.574 378.245 280.427 373.071 270.189C368.818 261.774 367.302 252.262 367.302 246.164C367.302 242.561 364.381 239.639 360.777 239.639C357.174 239.639 354.253 242.56 354.253 246.164C354.253 254.364 356.313 266.543 362.231 277.451C351.317 293.62 337.387 300.533 328.794 303.41C330.237 298.476 331.469 293.683 332.375 289.217C333.091 285.686 330.81 282.242 327.278 281.526C323.75 280.812 320.303 283.091 319.587 286.623C314.707 310.672 299.152 346.382 293.947 357.948H288.218C277.74 337.238 262.911 304.561 262.911 294.879C262.911 283.49 269.189 269.95 269.25 269.819C270.784 266.56 269.384 262.671 266.124 261.138C262.863 259.602 258.977 261.004 257.443 264.264C257.17 264.846 251.44 277.158 250.131 289.927C238.894 293.965 193.598 304.72 155.923 291.33C160.219 283.531 163.343 275.98 165.264 268.708C166.184 265.223 164.106 261.654 160.621 260.733C157.137 259.814 153.567 261.891 152.647 265.375C142.219 304.853 91.5915 345.936 82.1783 353.298L69.4524 336.331C75.2525 326.864 88.9263 302.284 88.9263 280.961C88.9263 276.208 88.5999 271.246 88.2545 265.994C86.7811 243.596 85.1094 218.212 107.926 195.069C123.061 179.718 139.787 168.547 157.639 161.867C176.888 154.663 198.135 152.424 220.793 155.209C272.353 161.548 309.358 175.562 309.723 175.703C310.822 176.124 312.013 176.239 313.171 176.041C340.327 171.345 354.96 178.612 358.541 180.752C358.336 187.985 358.948 196.689 361.427 206.075C362.2 209 364.841 210.934 367.731 210.934C368.283 210.934 368.843 210.863 369.402 210.717C372.886 209.797 374.964 206.227 374.044 202.743C370.652 189.907 371.397 178.446 372.471 171.532C390.877 180.527 395.998 198.299 396.235 199.156C397.175 202.623 400.741 204.681 404.214 203.753C405.935 203.295 407.309 202.188 408.149 200.765C434.865 220.723 442.94 268.412 444.467 279.37L437.587 289.693Z" fill="white"/>
<path d="M420.802 240.945C416.164 240.945 412.392 244.717 412.392 249.355C412.393 253.992 416.165 257.764 420.802 257.764C425.438 257.764 429.211 253.991 429.211 249.355C429.211 244.717 425.439 240.945 420.802 240.945Z" fill="white"/>
</svg>
